<svg xmlns="http://www.w3.org/2000/svg" width="16px" height="16px" viewBox="0 0 32 32" class="mspIcon ibp-left-nav-icon svgIcon">
  <title stroke="none" fill="#ffffff" stroke-width="1px">Organizations</title>
  <g class="ibp-fill-color" stroke="none" fill="#ffffff" stroke-width="1px">
    <path d="M24 12a3 3 0 1 1-3 3 3 3 0 0 1 3-3m0-2a5 5 0 1 0 5 5 5 5 0 0 0-5-5zm7 20h-2v-3a3 3 0 0 0-3-3h-4a3 3 0 0 0-3 3v3h-2v-3a5 5 0 0 1 5-5h4a5 5 0 0 1 5 5zM8 4a3 3 0 1 1-3 3 3 3 0 0 1 3-3m0-2a5 5 0 1 0 5 5 5 5 0 0 0-5-5zm7 20h-2v-3a3 3 0 0 0-3-3H6a3 3 0 0 0-3 3v3H1v-3a5 5 0 0 1 5-5h4a5 5 0 0 1 5 5z" stroke="black" fill="black" stroke-width="1px"></path>
  </g>
</svg>
